<svg id="a5c6b1d1-6bad-49b1-bce1-6ba50e206bc7" data-name="Layer 1" xmlns="http://www.w3.org/2000/svg" viewBox="0 0 372.97 425.92"><defs><style>.ae7c62e7-a843-49c6-967c-75f1cb1343b5,.bbb2950a-b23a-44ac-82a2-991249fe6dff{fill:#283037}.bbb2950a-b23a-44ac-82a2-991249fe6dff{fill-rule:evenodd}</style></defs><path class="ae7c62e7-a843-49c6-967c-75f1cb1343b5" d="M299.3 57.39a8.71 8.71 0 0 0 5.27 8 21.19 21.19 0 0 1-2.72 5.59c-1.64 2.39-3.34 4.78-6 4.83s-3.48-1.57-6.49-1.57-4 1.52-6.44 1.61-4.55-2.59-6.2-5c-3.38-4.88-6-13.79-2.49-19.8a9.61 9.61 0 0 1 8.13-4.93c2.54 0 4.93 1.71 6.48 1.71s4.47-2.11 7.53-1.8a9.17 9.17 0 0 1 7.18 3.9 8.86 8.86 0 0 0-4.24 7.47m-4.95-14.6a8.67 8.67 0 0 0 2-6.27 8.8 8.8 0 0 0-5.79 3 8.25 8.25 0 0 0-2.09 6.08 7.28 7.28 0 0 0 5.83-2.78" transform="translate(-60.25 -34.33)"/><path class="ae7c62e7-a843-49c6-967c-75f1cb1343b5" d="M196.28 173.34h.12a.69.69 0 0 1 0-.16v-.1s-.1.07-.14.22Zm-1.13-2.71v-.1H195v.11h.16Zm-3.26 6.11a4.89 4.89 0 0 0-.89-1.13q0-.18.6-.54l1.19-1a2.92 2.92 0 0 0 .47-1.65v-.17c-.05-.53-.43-.95-1.15-1.28a4.53 4.53 0 0 0-2.31-.47 13.31 13.31 0 0 0-3.59 1 16.16 16.16 0 0 1-1.39.88v.09l.14-.06c.06 0 .1 0 .1.07h.09a4.25 4.25 0 0 1-1 .75l.05.1h-.11s0 .05-.13.06l.11.13a.34.34 0 0 1-.15 0 .72.72 0 0 0-.44.24l.06-.26a23.07 23.07 0 0 0 .44-2.48 1.76 1.76 0 0 1-.43-.4v-.23q-.71 1.06-2.72 3.61a16 16 0 0 0-1.58 2c-.41.43-.61.69-.59.78s-.16.14-.14.22a.05.05 0 0 1-.06 0 1.24 1.24 0 0 1-.79.56l-.37.08a.09.09 0 0 0-.07.11h.14l-.32.12-.55.13h-.29.12-.33c-.22.05-.34 0-.36 0h-.05a.34.34 0 0 1 0 .09V178l-.29.07a6.8 6.8 0 0 0-1.18-1.47c0-.17.26-.41.81-.71l1.56-1.37a4 4 0 0 0 .62-2.16v-.23c-.06-.7-.57-1.26-1.52-1.69a6 6 0 0 0-3-.62 18.08 18.08 0 0 0-4.73 1.28 17.42 17.42 0 0 1-1.82 1.16v.12a.71.71 0 0 0 .18-.07.1.1 0 0 1 .13.1l.12-.07h.06v.05a6.57 6.57 0 0 1-1.27 1l.06.11h-.19s-.06.06-.18.07v.06l.14.16a.54.54 0 0 1-.19 0 1.26 1.26 0 0 0-.82.6l.07.11a1.57 1.57 0 0 1 .41-.32v.17a.53.53 0 0 0-.18.07l.14.22a5.66 5.66 0 0 1 .93-.78c.17 0 .26.1.26.16h.13a10.17 10.17 0 0 1 2.73-1.47v.12c-.17.25-.29.38-.35.39a.43.43 0 0 0 .09.22 20.14 20.14 0 0 1-1.22 3.09 81.79 81.79 0 0 1-4.75 9.83.42.42 0 0 0 .08.17 1.55 1.55 0 0 0 .6-.22H163v.12h.12l.12-.07s0 .06.12.05v.12a1 1 0 0 1-.2.54 3.14 3.14 0 0 0-.41.92v.05h.12a7.54 7.54 0 0 0 1.17-1.68 19.19 19.19 0 0 0 3.42-1.29 3.26 3.26 0 0 0 1.81-.62v-.07l-.3.09h.03v-.06a2.67 2.67 0 0 0 1.21-.4c1.13-.87 2-1.49 2.57-1.86a6.68 6.68 0 0 0 2.32-2.56H175.58a.05.05 0 0 1 0-.06h.31l.45-.1h.08a.45.45 0 0 0 .16 0v.13l-2 3.24-.45.57-.23.74.22-.1-.07.29v.09l.06.07v.11h.09c.13-.11.19-.22.17-.32a.9.9 0 0 0 .29 0c-.09 0-.13.09-.14.22h.05c.74-.81 2.55-3.57 4-5.44-.05-.21.71-.49 2.28-.85a5 5 0 0 1-.37 1.78 5.42 5.42 0 0 0-.27.93 7.56 7.56 0 0 0-.35 1.23l-.55 1.82a16.34 16.34 0 0 0-.83 2.94.5.5 0 0 1 .15 0l.08-.07h.06v-.13h.24q.1 0 .18-.27c0-.25 0-.38.15-.41a3.46 3.46 0 0 1 .28-.89 3.8 3.8 0 0 1 .31-1c.21-.75.36-1.14.46-1.16v.09l-.15.39a20.3 20.3 0 0 1-.81 2.81l.07.34h.05a70.67 70.67 0 0 0 2.86-8.45 1.1 1.1 0 0 1 .59-.97l-.07-.08a.54.54 0 0 0 .3-.16s-.13-.08-.38-.15l.62-2.65a1 1 0 0 1 .24-.18v.13a.3.3 0 0 0-.14.06l.12.17a3.64 3.64 0 0 1 .7-.6c.13 0 .19.08.2.12h.09a7.24 7.24 0 0 1 2.07-1.11v.08c-.12.19-.21.29-.26.29a.43.43 0 0 0 .06.17 15.48 15.48 0 0 1-.92 2.35 64.72 64.72 0 0 1-3.6 7.47.28.28 0 0 0 .06.13 1.11 1.11 0 0 0 .45-.18v.09H182.83v.09a.78.78 0 0 1-.15.41 2 2 0 0 0-.32.69v.05h.09a5.4 5.4 0 0 0 .89-1.28 13.83 13.83 0 0 0 2.59-1 2.49 2.49 0 0 0 1.39-.47l-.23.07a1.84 1.84 0 0 0 .91-.3c.87-.66 1.52-1.13 2-1.41 1.37-1 2-2 1.93-2.88Zm-.23.06v.36c0 .09-.09.14-.13.14l-.06-.61c.1 0 .15.07.16.11Zm-26.94-2.89h-.06v-.11h.25v.05a.62.62 0 0 0-.18.08Zm-1.19 12a.72.72 0 0 0-.38-.08v-.18c0-.06 0-.11.12-.13s.12.05.13.17a3.37 3.37 0 0 1 .34-.39l.13.05c0 .36-.15.54-.32.56Zm12.8-13.4c-.06 0-.18-.18-.35-.56v-.11c.11 0 .23.18.35.56v.11Zm-.17-1.33v.12l-1.74-.73c1.16 0 1.76.24 1.79.61Zm-7.34 6.31h-.25v-.11h.25v.11Zm-.2-3.79h.06v.17c-.05 0-.13.09-.22.25V174c.11-.13.17-.23.16-.3Zm-.52 1.22v.23h-.07v-.23Zm-.27.43h.17c0 .19-.06.29-.16.3h-.06a.45.45 0 0 0 .1-.29Zm-.2.6h.07v.05l-.11.19h-.12v-.06a.15.15 0 0 0 .16-.19Zm-.2.55v.29h-.06v-.28Zm-2 5.67c-.08.4-.17.6-.26.61v-.06a.63.63 0 0 1 .26-.55Zm-.37.79v.04c0 .08 0 .13-.1.13v-.06a.13.13 0 0 1 .11-.13Zm-.06 1.64h.19v.07a.5.5 0 0 0-.19.07h-.11a.12.12 0 0 1 .1-.13Zm5.27-1.62a9.61 9.61 0 0 0-1.83 1c-1.13.39-1.69.63-1.68.73a15.86 15.86 0 0 0-2 .87.92.92 0 0 1-.32-.09.52.52 0 0 1 .27-.5 1.08 1.08 0 0 1 .5.08 4.87 4.87 0 0 1 1-.32v-.12h-.37a5.64 5.64 0 0 1 1.08-.5h.08v.05c-.31 0-.49.12-.53.29a.1.1 0 0 0 .13.1c.24-.15.36-.24.35-.26a19.94 19.94 0 0 0 3.75-2v.11s-.17.2-.52.46Zm-3.14 1a1.23 1.23 0 0 0 .77-.36c.08 0 .13 0 .13.1a3.13 3.13 0 0 0-.83.37h-.06V184Zm5.06-3.89-1.57 1.24a15.39 15.39 0 0 1-1.88 1.16 14.31 14.31 0 0 1-3.46 1.59h-.07c.06-.21.88-1.9 2.48-5.08a13.4 13.4 0 0 0 3.33-1h.37a2.1 2.1 0 0 1 1.71.44v.23c-.28.81-.59 1.29-.93 1.43Zm-3.06-1.73h.25v.06h-.25v-.06Zm3.54-.6h.19c.17.08.26.15.26.21v.06a.52.52 0 0 1-.46-.26Zm.5-2.85a7.4 7.4 0 0 1-1.34 1 17.54 17.54 0 0 0-2.7 1.05.43.43 0 0 0-.25 0v-.11a1.43 1.43 0 0 1 .3-.85c.12-.64.25-1 .4-1.1l1.3-2.92c0-.18.26-.32.83-.41h.19v.17l1-.15c1-.09 1.57.12 1.61.62h.12v-.29h.12a.78.78 0 0 1 .49.61.89.89 0 0 1-.26.6c-.08 0-.13-.05-.13-.16h-.13v.36q-.78 1.17-1.14 1.2c-.21.3-.34.44-.4.45Zm.8 2a.5.5 0 0 0-.26-.1v-.17h.12l.26.15a.1.1 0 0 1-.11.13Zm.83 1c.11 0 .18.1.19.14h-.06l-.08.07v-.24Zm.07.49h.15-.15Zm.36.4a3.35 3.35 0 0 0 .51-.1v.05l-.54.12v-.07Zm.53.23a2.24 2.24 0 0 0-.54.07l.45-.15.22-.05v.09c-.1 0 0 0-.14.08Zm.48-.12a.09.09 0 0 1-.12-.07h.14c.06 0 .1 0 .11.07h-.13Zm1.3-1.4.22-.06v.09Zm1.39 8.53a.23.23 0 0 0 0-.14.08.08 0 0 1 .11.06v.05h-.18Zm1-8.16h-.1l-.41.14h-.09a.1.1 0 0 1-.12-.07l.65-.15.22-.1.07.09a.41.41 0 0 0-.22.09Zm.5-.16v-.05s.07 0 .12-.08l.46-.1a3 3 0 0 0-.58.19Zm.07-.94-.13.08h-.19c-.12 0 .32-.22 1-.38h.1v.08l-.83.24Zm1.24-1.34c-.05.56-.24.88-.6 1v-.05l-.31.12h-.14a.31.31 0 0 1-.19 0v-.13a19.62 19.62 0 0 1 1.36-1.87h.11a2.15 2.15 0 0 1-.19.91Zm2.21-1.89v-.09h.18v.05a.36.36 0 0 0-.13 0Zm-.91 9.11a.54.54 0 0 0-.29-.06v-.14s0-.07.09-.09.09 0 .1.13a1.65 1.65 0 0 1 .26-.3h.09q0 .41-.24.42Zm9.72-10.17s-.13-.14-.27-.43V172c.09 0 .18.14.28.42v.1Zm-.12-1-.05.1-1.31-.56c.88 0 1.33.19 1.36.46Zm-5.64 4.82h-.18v-.09h.19v.09Zm-.15-2.87v.14s-.1.07-.17.19v-.09c.09-.1.13-.18.12-.23Zm-.39.92v.18h-.05v-.18Zm-.21.33h.1q0 .23-.12.24h-.05a.42.42 0 0 0 .07-.23Zm-.15.46v.05l-.08.14H186v-.05c.1 0 .14 0 .13-.14Zm-.14.41v.23-.22Zm-1.52 4.31c-.06.3-.13.46-.2.46a.5.5 0 0 1 .2-.42Zm-.28.61c0 .07 0 .1-.09.11v-.05s0-.08.09-.09Zm-.08 1.25h.14a.48.48 0 0 0-.14.06H184s0-.08.09-.09Zm4-1.24a7.76 7.76 0 0 0-1.39.79c-.86.3-1.28.48-1.27.56a12.14 12.14 0 0 0-1.49.66.63.63 0 0 1-.25-.07.39.39 0 0 1 .21-.37.82.82 0 0 1 .38.06 3.59 3.59 0 0 1 .73-.24v-.09h-.29a3.71 3.71 0 0 1 .82-.38h.14c-.24 0-.37.09-.4.22s0 .08.1.08.26-.19.26-.21a14.55 14.55 0 0 0 2.84-1.49v.09s-.13.15-.4.34Zm-2.38.79a1 1 0 0 0 .59-.27c.06 0 .09 0 .1.08a2.14 2.14 0 0 0-.63.27h-.05v-.08Zm3.85-3-1.19 1a11.13 11.13 0 0 1-1.44.88 10.5 10.5 0 0 1-2.63 1.21h-.05c.05-.16.68-1.44 1.89-3.85a10.41 10.41 0 0 0 2.52-.76h.29a1.61 1.61 0 0 1 1.3.33v.18c-.21.61-.45 1-.7 1.08ZM187.2 177h.19-.19Zm2.69-.46h.11c.13.07.19.12.2.17a.42.42 0 0 1-.35-.2Zm.38-2.16a6.07 6.07 0 0 1-1 .76 14.64 14.64 0 0 0-2.05.79.36.36 0 0 0-.18 0v-.09a1.11 1.11 0 0 1 .22-.65c.1-.49.2-.76.31-.83l1-2.22c0-.13.2-.23.62-.32h.15v.14l.79-.12c.78-.07 1.19.09 1.22.47h.09v-.22h.1a.58.58 0 0 1 .36.45.7.7 0 0 1-.19.46c-.06 0-.09 0-.1-.12h-.09v.27q-.6.9-.87.93-.24.31-.3.33Zm.41 1.48v-.14h.09l.2.12c0 .06 0 .09-.08.1s-.15-.08-.2-.07Zm-16.55 8.64h-.1l-.08.06c0 .06.05.08.12.07s.08 0 .07-.11Zm-.36-.71a.09.09 0 0 0 .08-.11.08.08 0 0 0-.07.1Zm2.52-4.73h.07Zm0-1.22h.1v-.09h-.1v.1Zm25.13 3.59h-.24v.14l1.44-.12v-.09l-1.16.1Zm1.32-.11v.09-.09Zm6-.79v.09h.16v-.09h-.16Zm-.22 0a5.39 5.39 0 0 1-1.44.21v.09h.25c1.07-.12 1.2-.08 1.19-.2Zm-6.46-1.53h-.09a2.11 2.11 0 0 0-.12.37c.07 0 .14-.13.2-.37Zm-1.3-.71-.09.06v.08a.08.08 0 0 0 .09-.1Zm2.83 2.93v-.09.09Zm5.87-1.32h.06a.08.08 0 0 0 .06-.09v-.09a1.13 1.13 0 0 0-.56.14h-.3c0-.08 0-.13-.07-.13h-.15c-.18 0-.27 0-.36.07h-.17l-.1.06v-.05l-.06.05h-.3v.09H207.74a.28.28 0 0 0 .13 0l.1-.05a8.08 8.08 0 0 1-.94.17.19.19 0 0 0-.1 0s-.07 0-.08-.08h.34c.16-.07.17-.11.25-.11v-.09a6.38 6.38 0 0 1-1 .09v-.09a3.84 3.84 0 0 0 .89-.13.34.34 0 0 1 .12-.06h.06a3.49 3.49 0 0 0 1-.14l.1-.05h.09c0-.09.13-.11.18-.11v-.1c-1.07.22-1.35.16-1.65.24a1.57 1.57 0 0 1-.36 0 .21.21 0 0 0-.09.05l-.91.15a5.55 5.55 0 0 1-1 .17h-.55l-.26.06a2.37 2.37 0 0 1-.38.08c-.07 0 0 0 0 0h-.52c-.69.08-.62.1-.69.1h-.26c-.29 0-.44-.08-.44-.14 0-.27.11-.41.2-.42h.05v.1h.05c.09-.05.13-.09.13-.14v-.09h-.09v-.09a.48.48 0 0 1 0-.18l.21-.34v.09h.1v-.09l-.06-.08a.41.41 0 0 1 .18-.1h-.14v-.13a3.68 3.68 0 0 0 .39-1h.1a.1.1 0 0 0 .09-.11h-.1a.4.4 0 0 1 0-.19.55.55 0 0 0 .2-.46s.05 0 .05 0a.88.88 0 0 0 .29-.57 17.11 17.11 0 0 0 .94-2.39 13.36 13.36 0 0 0 .87-2.83h-.1a.29.29 0 0 1 0 .18h-.15a1.07 1.07 0 0 1 .24-.66l.08.3h.09a2.9 2.9 0 0 1 .07-.37c0-.05 0-.07-.11-.08l-.09.06a4.74 4.74 0 0 1 0-.5.3.3 0 0 1-.12-.19l-.51.05a.47.47 0 0 0-.05-.16s.11-.09.34-.14h.26l.09-.06s0 .05.06 0h.05v-.1h-.56l-.1.07v-.06l-4.07.34h-.5s0 .06-.1.07h-.11l-.34.09a1.63 1.63 0 0 1-.42 0 .3.3 0 0 1-.19.08l1-.07a.44.44 0 0 1-.25.08.32.32 0 0 1-.2 0c-.08 0-.33.09-.76.18h-.1l-1.67.25a.38.38 0 0 0-.22 0 2.4 2.4 0 0 0-.44.09l-.81.34.06.1a.68.68 0 0 0 .17-.07h.28v.26a.72.72 0 0 0-.45.52c-.4.17-.59.3-.59.37h.06l.11-.05.12.14v.21c0 .07-.66 1.46-2 4.19-1.15 2.64-1.76 4.08-1.81 4.34q-.6.16-.69.48c0 .07.12.11.35.13v.11l-.1.17v.2c0 .11.3.19.87.25v-.06a2.76 2.76 0 0 1-.11.74h.06a1.31 1.31 0 0 0 .13-.71c.06 0 .12.06.19.19a8.88 8.88 0 0 0-.75 1.71l.06.09h.06a11.77 11.77 0 0 1 1-2.19c.68-.06 1.87-.18 3.56-.37l.1-.06h.18l.1-.07s0 .06.07.05l1.28-.11c.33 0 .49-.13.48-.3s.2-.1.6-.16h.17s.2-.06.61-.1c0-.21.07-.32.2-.33v-.11a1.77 1.77 0 0 0-.39.09 2 2 0 0 1-.51-.06l-.16.07h-.89l-.1.06a.05.05 0 0 0-.07 0l-.11.06s-.1-.06-.28-.08l-.12.06h-.22c1.14-.13 1.71-.29 1.7-.47.07 0 .11 0 .12.1l.33-.08v-.11l-2.74.08a.06.06 0 0 1-.06.06h-.33a.33.33 0 0 0-.21.08l-.13-.05a4.3 4.3 0 0 0-.77.12 6.92 6.92 0 0 0-.78 0l-.62.06h-.28a13.6 13.6 0 0 1 1.06-2.68 2.31 2.31 0 0 1 .59-1 .58.58 0 0 1 .17.05l.44-.15h.22a5.22 5.22 0 0 0 1.32-.32.76.76 0 0 1 .28 0l.34-.07 1-.09a6.26 6.26 0 0 0 1.38-.28v-.1c-.18 0-.28 0-.28-.09s-.15-.2-.41-.18v-.1l.27-.08.72-.06V175h-.44v-.11h.27c.08 0 .11 0 .1-.11-.37 0-.56 0-.56-.06a22.25 22.25 0 0 1-3.92.07l-.16.07-.07-.1a8.9 8.9 0 0 1 1.21-2.22.57.57 0 0 1-.08.28h.11c.28-.65.51-1 .7-1 .82-.07-.11-.12 1.64-.39a.41.41 0 0 0 .15 0c.69-.14 1.64-.29 2.87-.43v-.11l-.65.06v-.1a.33.33 0 0 0 .2-.08v.06a.33.33 0 0 0 .15-.07.49.49 0 0 1 .26 0 4.78 4.78 0 0 1 .55-.11h.41c.1-.06.14-.12.14-.17a1.13 1.13 0 0 1-.36 0c0-.06 0-.1.09-.11l.76-.07.35-.09h.05a.33.33 0 0 0 .15-.07h.06a2.7 2.7 0 0 0-.16.41H204a.35.35 0 0 0 0-.18h-.05c-.93 2.58-1.34 3.78-2.19 5.75-.16.51-.29.79-.41.85s0 .09.1.08a1.21 1.21 0 0 1-.17.73 7.88 7.88 0 0 1-.79 1.88l.09.54q0 .08-.09.09h-.09c0-.15-.07-.22-.17-.21a2.18 2.18 0 0 0-.27.66h.09a.29.29 0 0 0 .17-.28H200.51a.55.55 0 0 0-.11.32l.05.09-.12.28v.05a.56.56 0 0 1 .35.1.66.66 0 0 0 .28-.12H202l.35-.12a7.72 7.72 0 0 0 .85 0h.15l.07-.05a2.58 2.58 0 0 1 .7 0h-.21v.09a.33.33 0 0 0 .17-.07q.08 0 .09.09a1.21 1.21 0 0 0-.29.07h-.09a1.06 1.06 0 0 1-.22.06h-.14s0 .09.09.09h.15l.78-.07.3-.06.15-.06h.26c.21 0 .21 0 .65-.1a5.67 5.67 0 0 0 .89-.17c.18 0 .08 0 .13-.06h.13v-.09h-.33a1 1 0 0 1-.29 0h-.65l.36-.05h.13l.08-.05a11.81 11.81 0 0 0 3.06-.42c.13 0 .12-.11.2-.33h-.12a4.21 4.21 0 0 1-.68.1s-.06 0-.07-.08h.36a1 1 0 0 0 .4-.13s-.08 0 0 0Zm-17.52.28h-.17a4.07 4.07 0 0 1 .27-.76h.11a2.6 2.6 0 0 1-.21.76Zm.2-.82c0-.06 0-.1.11-.12v.05c0 .07 0 .11-.12.11Zm2.23 1.72v.05h-.28.28Zm-.34 0c0 .06-.08.13-.26.19h-.45v-.11l.68-.16Zm2.25-10.34h-.17v-.06c0-.05 0-.09.1-.11H196.38c0 .07 0 .11-.1.12Zm2.54-.5h.06v.1h-.16a.11.11 0 0 1 .09-.11Zm-.64.22h-.25v-.05a3.18 3.18 0 0 0 .64-.12s0 .05.11 0v.11h-.1a.33.33 0 0 1-.2 0 .35.35 0 0 1-.2.07Zm.32.92h.41v.05h-.41Zm.44-.35v-.06h.2v.03h-.2Zm0-.7v-.11l.45-.05v.06a2.8 2.8 0 0 0-.46.09Zm.24 1v-.1h.2c.07 0 .1 0 .1.1h-.29Zm1.2-1.64-.25.07a2.56 2.56 0 0 1-.46 0c.33 0 .64 0 .76-.06Zm-.27 1.14h-.35.35Zm.57.27s-.07-.07-.21-.08l-.35.1h-.27c-.06 0-.09-.07-.09-.09h.31l.7-.11h.36v.08a2.5 2.5 0 0 0-.46.09Zm3.63-.93h.08a1.19 1.19 0 0 1 .42-.28 2.37 2.37 0 0 1-.6 1.24l-.2-.12a6.57 6.57 0 0 0 .3-.84Zm-.61 1c-.07.13-.13.2-.18.2v-.13a.3.3 0 0 0 .14-.06Zm-.4.94c.1-.39.19-.6.28-.66v.05c-.05.35-.13.54-.23.56v.22a.52.52 0 0 0-.13.28v-.31s.1-.06.13-.15Zm-.15.51a1.44 1.44 0 0 1-.1.37H203v-.13c.06-.16.12-.24.16-.24Zm-2.87 8.33h.1v.05a.09.09 0 0 1-.1-.09Zm4.1.11s0-.05 0 0h-.23V181h.54c-.16 0-.26 0-.29.07Zm-.27-.12Zm0-.64h-.3.28l.24-.06h.05a3.73 3.73 0 0 1 .4-.07s.08 0 .08.08l-.74.06Zm1.07-.09a1.12 1.12 0 0 0-.3 0h.27s.07 0 0 0Zm0 0h.15Zm.33 0a.25.25 0 0 0 .11-.05.11.11 0 0 1 .12.1Zm.42-.05h.18v.05Zm.25 0c0-.05 0-.09.07-.09l.06.07v.09h-.2Zm3.5-.41Zm.07 0v-.05.05l-.07.1h.14v-.09Zm.26.2v.09h.2c0-.06-.14-.08-.18-.08Z" transform="translate(-60.25 -34.33)" id="b83ae2ca-a4f0-43bd-b0e8-94a58e70d916" data-name="plain"/><path class="ae7c62e7-a843-49c6-967c-75f1cb1343b5" d="m429.88 248.21-17.31-10.28a6.54 6.54 0 0 0-6.69 0l-17.32 10.28a6.92 6.92 0 0 0-3.34 5.95v20.56a6.92 6.92 0 0 0 3.35 5.95L405.88 291a6.52 6.52 0 0 0 6.68 0l17.32-10.28a6.91 6.91 0 0 0 3.34-5.95v-20.61a6.9 6.9 0 0 0-3.34-5.95Zm-13.41 32.1v1.48a.53.53 0 0 1-.25.45l-.88.51c-.14.07-.25 0-.26-.2v-1.45a2.82 2.82 0 0 1-2 .19c-.1 0-.13-.17-.1-.32l.32-1.34a.53.53 0 0 1 .16-.28l.08-.06a.17.17 0 0 1 .14 0 2.58 2.58 0 0 0 3.22-2.29c0-.75-.42-1.06-1.41-1.06-1.25 0-2.43-.25-2.45-2.1a5.37 5.37 0 0 1 2-4.11v-1.5a.53.53 0 0 1 .25-.45l.85-.54c.14-.07.26 0 .26.2v1.49a2.71 2.71 0 0 1 1.66-.2c.11 0 .15.17.11.34l-.33 1.32a.56.56 0 0 1-.15.27.24.24 0 0 1-.21.08 2.24 2.24 0 0 0-1.6.26 2 2 0 0 0-1.18 1.78c0 .68.35.88 1.55.9 1.6 0 2.3.73 2.31 2.34a5.72 5.72 0 0 1-2.09 4.29Zm9.08-2.48a.35.35 0 0 1-.13.33l-4.42 2.66c-.11.07-.21 0-.21-.13v-1.12a.32.32 0 0 1 .2-.28l4.31-2.58c.12-.07.21 0 .21.12Zm3-25.29-16.38 10.12c-2.05 1.2-3.55 2.54-3.55 5v20.19c0 1.48.59 2.43 1.5 2.71a5.5 5.5 0 0 1-.91.09 5.31 5.31 0 0 1-2.73-.76l-17.32-10.28a5.7 5.7 0 0 1-2.75-4.89v-20.56a5.72 5.72 0 0 1 2.75-4.9L406.49 239a5.36 5.36 0 0 1 5.47 0l17.32 10.28a5.67 5.67 0 0 1 2.66 4c-.57-1.28-1.87-1.62-3.38-.74Z" transform="translate(-60.25 -34.33)"/><g id="be4104e2-2cae-4366-9682-6972efb6303e" data-name="original"><path class="ae7c62e7-a843-49c6-967c-75f1cb1343b5" d="M282 418.34c-8.8 0-16 2.37-16 5.31 0 .77 1.92 11.87 2.68 16.28.34 2 5.45 4.87 13.31 4.87 7.92 0 13-2.9 13.32-4.87.76-4.41 2.68-15.51 2.68-16.28.01-2.94-7.19-5.31-15.99-5.31Zm0 22.89a5.09 5.09 0 1 1 5.09-5.08 5.09 5.09 0 0 1-5.09 5.08Zm0-15.94c-5.66 0-10.25-1-10.25-2.2s4.6-2.17 10.25-2.16 10.25 1 10.25 2.19-4.59 2.18-10.25 2.17Z" transform="translate(-60.25 -34.33)"/><path class="ae7c62e7-a843-49c6-967c-75f1cb1343b5" d="M293.5 444.34a.77.77 0 0 0-.44.17s-3.94 3.12-11.06 3.13-11.06-3.13-11.06-3.13a.77.77 0 0 0-.44-.17.57.57 0 0 0-.57.63.59.59 0 0 0 0 .13c.61 3.28 1.06 5.6 1.13 6 .54 2.4 5.25 4.22 10.92 4.22s10.38-1.82 10.92-4.22c.08-.36.52-2.68 1.13-5.95a.78.78 0 0 0 0-.14.57.57 0 0 0-.53-.67ZM282 433.6a2.55 2.55 0 1 0 2.54 2.54 2.55 2.55 0 0 0-2.54-2.54Z" transform="translate(-60.25 -34.33)"/></g><path id="ba0b1562-9f8d-4740-adae-bc2402f58a8f" data-name="plain" class="ae7c62e7-a843-49c6-967c-75f1cb1343b5" d="m234.34 131.56 4.37 49 19.6 5.47 19.69-5.45 4.38-49Zm38.92 11.23-1.45 16.34v.29l-1 11.43-.11 1-12.32 3.41-12.38-3.41-.84-9.44h6l.42 4.8 6.69 1.81 6.71-1.84.71-7.82h-14l-.12-1.32-.27-3.1-.15-1.66h15.1l.55-6.08h-23l-.12-1.32-.27-3.1-.14-1.66h30.1Z" transform="translate(-60.25 -34.33)"/><path class="ae7c62e7-a843-49c6-967c-75f1cb1343b5" d="M360.81 434.76v-6.2a9.78 9.78 0 0 0 9.19-13.35 9.25 9.25 0 0 0-5.56-5.55 9.84 9.84 0 0 0-13.3 9.12h-6.23A16.09 16.09 0 0 1 366 403.65a15.36 15.36 0 0 1 10.09 10.05 16.07 16.07 0 0 1-15.28 21.06Z" transform="translate(-60.25 -34.33)"/><path class="ae7c62e7-a843-49c6-967c-75f1cb1343b5" d="M360.91 428.56h-6.23v-6.11h6.23Zm-6.23 4.79H350v-4.79h4.71Zm-4.68-4.79h-4v-3.95h4Z" transform="translate(-60.25 -34.33)"/><g id="bcbbe73c-1c66-48c8-a579-581b69523e0b" data-name="plain"><path class="ae7c62e7-a843-49c6-967c-75f1cb1343b5" d="M425.42 180.41a7.47 7.47 0 0 0-5.69-.53 7.8 7.8 0 0 0-3.08-5l-.61-.49-.52.59a6.73 6.73 0 0 0-1.2 4.72 6.11 6.11 0 0 0 1.15 3.17 9.9 9.9 0 0 1-1.66.93 10.87 10.87 0 0 1-3.41.75h-2.55v-5.37h-5v-9.6h-5.75v4.6h-9.6v5h-5v5.37h-4.28l-.07.56a13.93 13.93 0 0 0 1.13 7.13l.44.85v.06c3 5.14 8.34 7.29 14.13 7.29 11.21 0 20.45-5 24.7-15.59 2.84.15 5.74-.69 7.13-3.4l.35-.69Zm-37.15-5h3.84v4.22h-3.84Zm5 17a1.17 1.17 0 1 1-1.17-1.17 1.17 1.17 0 0 1 1.2 1.11Zm-5-12h3.84v4.22h-3.84Zm-5 0h4.22v4.22h-4.22Zm10.63 19.28c-6.06 0-9.34-2.08-12-4.75.79 0 1.56.07 2.28.07s1.22 0 1.79-.05a17.54 17.54 0 0 0 3.88-.59 10.32 10.32 0 0 0 5.39 5.3Zm3.19-15.06h-4.22v-4.22h4.22Zm0-5h-4.22v-4.22h4.22Zm5 5h-4.22v-4.22h4.22Zm0-5h-4.22v-4.22h4.22Zm0-5h-4.22v-4.22h4.22Zm5 10h-4.22v-4.22h4.22Z" transform="translate(-60.25 -34.33)"/><path class="ae7c62e7-a843-49c6-967c-75f1cb1343b5" d="M392.43 191.57a.73.73 0 0 0-.3-.06.84.84 0 1 0 .84.84.71.71 0 0 0-.07-.32.34.34 0 1 1-.47-.46Z" transform="translate(-60.25 -34.33)"/></g><path class="ae7c62e7-a843-49c6-967c-75f1cb1343b5" d="M172 121a8 8 0 0 0 8-8v-8h-8a8 8 0 0 0 0 16Zm-8-24a8 8 0 0 1 8-8h8v16h-8a8 8 0 0 1-8-8Zm0-16a8 8 0 0 1 8-8h8v16h-8a8 8 0 0 1-8-8Zm16-8h8a8 8 0 0 1 0 16h-8Zm16 24a8 8 0 1 1-8-8 8 8 0 0 1 8 8Z" transform="translate(-60.25 -34.33)"/><g id="ea85b6e3-3fda-4bc1-9139-d29da4390e63" data-name="original-wordmark"><path class="ae7c62e7-a843-49c6-967c-75f1cb1343b5" d="M75.15 276.85v-10.5h.56V268a1.33 1.33 0 0 0 .18-.23 2.82 2.82 0 0 1 2.58-1.59 3 3 0 0 1 3 1.6 5.1 5.1 0 0 1 .13 4.7 3.21 3.21 0 0 1-3.6 1.71 2.87 2.87 0 0 1-2.28-1.51v4.17Zm.55-6.79c0 .51.07.88.13 1.23a2.57 2.57 0 0 0 2.35 2.39 2.69 2.69 0 0 0 3-1.7 4.58 4.58 0 0 0-.1-3.75 2.63 2.63 0 0 0-2.77-1.53 2.54 2.54 0 0 0-2.31 1.88 14.11 14.11 0 0 0-.3 1.48ZM93.72 271.48a3.07 3.07 0 0 1-3 2.73 3.32 3.32 0 0 1-3.72-3.29 5.37 5.37 0 0 1 .46-2.93 3.26 3.26 0 0 1 3.38-1.81 3.12 3.12 0 0 1 2.75 2.36 14.94 14.94 0 0 1 .27 1.75h-6.24a3 3 0 0 0 2 3.31 2.66 2.66 0 0 0 3.4-1.79c.17-.37.35-.43.7-.33Zm-6.11-1.72h5.62a2.85 2.85 0 0 0-2.63-3.07 2.94 2.94 0 0 0-2.99 3.07ZM94.88 271.53h.55a2.21 2.21 0 0 0 1.29 1.88 3.39 3.39 0 0 0 3-.07 1.35 1.35 0 0 0 .79-1.3 1.2 1.2 0 0 0-.81-1.2c-.6-.23-1.25-.35-1.86-.55a13.8 13.8 0 0 1-1.9-.67 1.79 1.79 0 0 1 .07-3 4 4 0 0 1 3.79-.06 2 2 0 0 1 1 2h-.47v-.06c-.06-1.51-1.32-2-2.68-1.84a3.68 3.68 0 0 0-1.17.35 1.17 1.17 0 0 0-.67 1.17 1.14 1.14 0 0 0 .78 1.09c.6.22 1.22.36 1.84.53s1 .22 1.48.4a1.76 1.76 0 0 1 1.2 1.58 1.87 1.87 0 0 1-1 1.94 4.12 4.12 0 0 1-4.38-.4 2.56 2.56 0 0 1-.85-1.79ZM108 268.62h-.52v-.19a1.68 1.68 0 0 0-1.37-1.62 3.37 3.37 0 0 0-2.17.11 1.31 1.31 0 0 0-1 1.26 1.2 1.2 0 0 0 .93 1.22c.78.24 1.57.41 2.36.61a5 5 0 0 1 .75.23 1.8 1.8 0 0 1 1.27 1.65 1.83 1.83 0 0 1-1.16 2 4.29 4.29 0 0 1-3.51 0 2.4 2.4 0 0 1-1.45-2.35h.5a2.82 2.82 0 0 0 4.3 1.8 1.38 1.38 0 0 0 .75-1.3 1.21 1.21 0 0 0-.82-1.19c-.6-.22-1.25-.34-1.86-.54a12.13 12.13 0 0 1-1.89-.68 1.78 1.78 0 0 1 0-2.95 3.91 3.91 0 0 1 3.85 0 2 2 0 0 1 1.04 1.94ZM74.21 274a.9.9 0 0 1-1.11-.41c-.63-1-1.33-1.85-2-2.77l-.29-.39c-.8 1.07-1.59 2.1-2.34 3.17a.86.86 0 0 1-1 .41l3-4-2.79-3.64a.94.94 0 0 1 1.11.39c.65.95 1.36 1.85 2.08 2.8.71-.95 1.42-1.85 2.08-2.79a.84.84 0 0 1 1-.39l-1.08 1.44c-.48.63-1 1.28-1.46 1.9a.39.39 0 0 0 0 .58ZM86.94 266.31v.55a2.81 2.81 0 0 0-3 2.9V274h-.55v-7.68h.54v1.57a3.28 3.28 0 0 1 3.01-1.58ZM60.25 269.93c.08-.4.14-.81.25-1.21a3.36 3.36 0 0 1 5.28-1.9 3.87 3.87 0 0 1 1.33 3.47H60.9c-.1 2.48 1.68 4 3.95 3.21a2.36 2.36 0 0 0 1.5-1.67c.12-.39.32-.45.68-.34a3.13 3.13 0 0 1-1.5 2.3 3.66 3.66 0 0 1-4.25-.55 3.84 3.84 0 0 1-1-2.24c0-.13 0-.26-.08-.39Zm.66-.17h5.61a2.85 2.85 0 0 0-2.67-3.07 2.93 2.93 0 0 0-2.94 3.07Z" transform="translate(-60.25 -34.33)"/></g><path id="b110d8f5-990b-420c-b74b-9f583303dda5" data-name="plain" class="ae7c62e7-a843-49c6-967c-75f1cb1343b5" d="m281.28 377.75-20.95-20.95a3.08 3.08 0 0 0-4.37 0l-4.35 4.35 5.52 5.52a3.67 3.67 0 0 1 4.64 4.68l5.32 5.32a3.67 3.67 0 1 1-2.2 2.07l-5-5v13.06a3.59 3.59 0 0 1 1 .69 3.68 3.68 0 1 1-5.32 0 4.11 4.11 0 0 1 1.09-.8v-13.14a3.9 3.9 0 0 1-1.09-.8 3.67 3.67 0 0 1-.73-4l-5.41-5.44-14.35 14.37a3.08 3.08 0 0 0 0 4.37l21 21a3.1 3.1 0 0 0 4.38 0l20.85-20.86a3.08 3.08 0 0 0-.03-4.44Z" transform="translate(-60.25 -34.33)"/><g id="a69155fe-99e8-47aa-b3ec-fa1869f08c53" data-name="original"><path class="bbb2950a-b23a-44ac-82a2-991249fe6dff" d="M220 429a16 16 0 0 0-5 31.18c.79.15 1.09-.35 1.09-.77v-3c-4.45 1-5.39-1.89-5.39-1.89a4.23 4.23 0 0 0-1.78-2.34c-1.45-1 .11-1 .11-1a3.34 3.34 0 0 1 2.45 1.65 3.41 3.41 0 0 0 4.66 1.33 3.41 3.41 0 0 1 1-2.14c-3.55-.41-7.29-1.78-7.29-7.91a6.21 6.21 0 0 1 1.65-4.29 5.8 5.8 0 0 1 .16-4.24s1.34-.43 4.4 1.64a15.12 15.12 0 0 1 8 0c3.06-2.07 4.4-1.64 4.4-1.64a5.73 5.73 0 0 1 .15 4.24 6.16 6.16 0 0 1 1.65 4.29c0 6.15-3.74 7.5-7.31 7.9a3.79 3.79 0 0 1 1.09 3v4.39c0 .53.29.93 1.1.77A16 16 0 0 0 220 429Z" transform="translate(-60.25 -34.33)"/><path class="ae7c62e7-a843-49c6-967c-75f1cb1343b5" d="M210.07 452c0 .08-.16.1-.27.05s-.18-.16-.14-.24.16-.11.27-.05.18.16.14.24ZM210.72 452.73c-.07.07-.22 0-.33-.07s-.12-.26 0-.33.22 0 .33.07.12.26 0 .33ZM211.35 453.65c-.1.07-.26 0-.36-.13s-.09-.32 0-.38.25 0 .35.13a.27.27 0 0 1 0 .38ZM212.22 454.54a.29.29 0 0 1-.41-.06.32.32 0 0 1-.1-.41c.09-.09.28-.06.42.07s.18.31.09.4ZM213.41 455.06c0 .13-.22.18-.4.13s-.3-.2-.26-.33.21-.18.4-.13.3.2.26.33ZM214.72 455.16c0 .13-.15.24-.34.24s-.35-.1-.35-.23.15-.24.34-.25.35.11.35.24ZM215.94 455c0 .13-.11.26-.3.3s-.36-.05-.38-.18.11-.26.29-.3a.33.33 0 0 1 .39.18Zm0 0" transform="translate(-60.25 -34.33)"/></g><path id="ac4218d9-239a-4487-afe8-1587e72986d4" data-name="plain" class="ae7c62e7-a843-49c6-967c-75f1cb1343b5" d="m197.14 402.43-1.79-5.52L191.8 386a.61.61 0 0 0-.93-.31.77.77 0 0 0-.23.36l-3.55 11h-11.78l-2.31-7.33-1.2-3.71a.56.56 0 0 0-.09-.19l-.07-.07a.6.6 0 0 0-.86 0 .55.55 0 0 0-.14.22l-3.55 10.92-.75 2.31-1 3.21a1.2 1.2 0 0 0 .22 1.14 1 1 0 0 0 .23.22l15.49 11.26 15.5-11.26a1.15 1.15 0 0 0 .27-.27l.1-.17a1.18 1.18 0 0 0-.01-.9Zm-1.79-5.52Z" transform="translate(-60.25 -34.33)"/><path class="ae7c62e7-a843-49c6-967c-75f1cb1343b5" d="m73.16 329.83-1.28-.9 14.23-30.09 1.28.9Z" transform="translate(-60.25 -34.33)"/><path class="ae7c62e7-a843-49c6-967c-75f1cb1343b5" d="M71.58 326.52h28.47v1.8H71.58Z" transform="translate(-60.25 -34.33)"/><path class="ae7c62e7-a843-49c6-967c-75f1cb1343b5" d="m86.39 337.57-14.24-10 .74-1.56 14.23 10Zm12.36-26.15-14.23-10 .73-1.56 14.24 10Z" transform="translate(-60.25 -34.33)"/><path class="ae7c62e7-a843-49c6-967c-75f1cb1343b5" d="m72.89 311.41-.74-1.56 14.24-10 .74 1.56Z" transform="translate(-60.25 -34.33)"/><path class="ae7c62e7-a843-49c6-967c-75f1cb1343b5" d="m98.49 329.83-14.23-30.09 1.28-.9 14.23 30.09Zm-25.78-21.17h1.48v20.06h-1.48Z" transform="translate(-60.25 -34.33)"/><path class="ae7c62e7-a843-49c6-967c-75f1cb1343b5" d="M97.45 308.66h1.48v20.06h-1.48Z" transform="translate(-60.25 -34.33)"/><path class="ae7c62e7-a843-49c6-967c-75f1cb1343b5" d="m86.13 336.8-.64-1.36 12.38-8.72.65 1.36Z" transform="translate(-60.25 -34.33)"/><path id="f33dd082-e649-449a-9950-ea6d7aae73b4" data-name="plain" class="ae7c62e7-a843-49c6-967c-75f1cb1343b5" d="M418.43 362H394a3.8 3.8 0 0 0-3.79 3.8v32.1a3.79 3.79 0 0 0 3.79 3.79h24.41a3.8 3.8 0 0 0 3.8-3.79v-32.09a3.8 3.8 0 0 0-3.78-3.81Zm-20.84 34.14v-9l4.5 4.5Zm17 .1h-4.2V380.37s1-3.78-12.7 1.55l-.06-14.62h4.44v9.41s12.48-4.93 12.48 3.74Zm-1.66-23.36h-4.74a25.33 25.33 0 0 0 3.25-5.44h4.91a22.26 22.26 0 0 1-3.46 5.45Z" transform="translate(-60.25 -34.33)"/><path id="f083d11a-e68b-44b0-99eb-254d4698b8d0" data-name="plain" class="ae7c62e7-a843-49c6-967c-75f1cb1343b5" d="m303.24 198.08 4.37 48.92 19.6 5.41 19.66-5.41 4.37-48.95Zm38.92 11.59-.28 3.13-.12 1.44h-23l.55 6.11h21.9l-.15 1.52-1.41 15.77-.1 1-12.31 3.36-12.3-3.24-.84-9.26h6l.43 4.77 6.68 1.78v-.24l6.71-1.69.7-7.68h-20.8l-1.47-16.64-.15-1.69h30.1Z" transform="translate(-60.25 -34.33)"/><path id="b70340f0-7c6d-4da5-86a1-6e7db31d3823" data-name="plain" class="ae7c62e7-a843-49c6-967c-75f1cb1343b5" d="M236.32 211.15v48h48v-48Zm25.39 40.9a5.68 5.68 0 0 1-3.63 2.84 8.72 8.72 0 0 1-6.42-.79 7.16 7.16 0 0 1-2.65-3l3.65-2.24a2.45 2.45 0 0 1 .26.41 3.84 3.84 0 0 0 1.66 1.72c.77.27 2.48.44 3.14-.93.4-.69.27-2.93.27-5.4v-11.59h4.49v12.34c.03 2.5.25 4.75-.77 6.64Zm18.65-1.27c-1.56 5.35-10.28 5.52-13.76 2a8.24 8.24 0 0 1-1.63-2.23l3.65-2.1a5.12 5.12 0 0 0 3.51 2.66c2.2.27 4.43-.49 3.93-2.83-.51-1.91-4.52-2.38-7.25-4.43a6.29 6.29 0 0 1-1.14-9 6.44 6.44 0 0 1 3.41-2l1.41-.18c2.72-.06 4.42.66 5.67 2.05a9.39 9.39 0 0 1 1.16 1.56c-1.45.92-1.44.91-3.52 2.26a3.34 3.34 0 0 0-1.95-1.82c-1.21-.36-2.73 0-3.05 1.31a2.53 2.53 0 0 0 .09 1.41c.49 1.11 2.13 1.6 3.6 2.27 4.24 1.72 5.67 3.56 6 5.75a6.49 6.49 0 0 1-.13 3.32Z" transform="translate(-60.25 -34.33)"/><path class="ae7c62e7-a843-49c6-967c-75f1cb1343b5" d="M363 347.12a6.37 6.37 0 0 0-5.14-6l6.52-17.6-32.56.09 6.63 17.62a6.34 6.34 0 0 0-4.92 6 6.12 6.12 0 0 0 2.91 5.06 17.4 17.4 0 0 1-2.38 2.49 18.3 18.3 0 0 1-5.6 3.3 4 4 0 0 1-1.93-4.88 6.31 6.31 0 0 0 4.82-5.95c0-3.42-3.09-6.19-6.85-6.18s-6.84 2.81-6.83 6.24a5.84 5.84 0 0 0 2 4.34l-.32.6a22.47 22.47 0 0 0-2.61 6.51c-.87 4.86.59 8.75 4.09 10.95a12 12 0 0 0 6.49 1.84c4 0 8.1-1.85 12-3.64a46.2 46.2 0 0 1 8.57-3.24c1-.24 2.15-.38 3.31-.54a20.33 20.33 0 0 0 7-1.79 9 9 0 0 0 4.78-6.19 8.4 8.4 0 0 0-1-5.72 5.78 5.78 0 0 0 1.02-3.31Zm-3 0a3.87 3.87 0 0 1-7.7 0 3.18 3.18 0 0 1 .5-1.74 4.54 4.54 0 0 1 .42-.56 3 3 0 0 1 .54-.45l.4-.25.19-.1.22-.08.21-.08.19-.05h.5a.08.08 0 0 0 .06 0h.7a.5.5 0 0 1 .17 0 2.52 2.52 0 0 1 .37.05 3.64 3.64 0 0 1 3.23 3.27Zm-23.93-20.75 24-.07-5.48 14.79a5.23 5.23 0 0 0-.68.18l-5.84-10.73-5.8 10.7a5.59 5.59 0 0 0-.71-.15Zm11 19.58a6 6 0 0 0-2.07-3.32l3.15-5.81 3.21 5.92a6.06 6.06 0 0 0-1.9 3.21Zm-7.66-2.17h1.72l.22.05a.59.59 0 0 1 .19.05h.06a.94.94 0 0 1 .15.06h.05l.18.07.2.1.18.09s.11.07.17.1a6.54 6.54 0 0 1 .52.4 4 4 0 0 1 .42.5 3.34 3.34 0 0 1 .64 1.91 3.87 3.87 0 0 1-7.71 0 3.57 3.57 0 0 1 3-3.32Zm-15-.05a3.51 3.51 0 1 1-3.84 3.5 3.69 3.69 0 0 1 3.79-3.49Zm35.58 11.92a6.16 6.16 0 0 1-3.3 4.27 17.75 17.75 0 0 1-5.87 1.45c-1.17.15-2.41.32-3.6.59a49 49 0 0 0-9.19 3.45c-3.79 1.72-7.36 3.34-10.68 3.35a8.68 8.68 0 0 1-4.74-1.36c-3.37-2.1-3.21-6.06-2.82-8.22a20.09 20.09 0 0 1 2.35-5.75l.17-.32a7.13 7.13 0 0 0 1.06.25c-.58 2.94 1.08 6 4.3 7.46l.58.28.62-.21a21.25 21.25 0 0 0 7.33-4.16 19.27 19.27 0 0 0 3.17-3.43 7.41 7.41 0 0 0 1.05.07 6.78 6.78 0 0 0 6.61-4.67h2.56a6.77 6.77 0 0 0 6.64 4.63 7.32 7.32 0 0 0 3.45-.87 5.75 5.75 0 0 1 .26 3.2Z" transform="translate(-60.25 -34.33)"/><g id="bd8953ef-1395-46f7-bc56-1261513b794d" data-name="plain"><circle class="ae7c62e7-a843-49c6-967c-75f1cb1343b5" cx="183.77" cy="61.46" r="5.95"/><path class="ae7c62e7-a843-49c6-967c-75f1cb1343b5" d="M244.12 88.57h14.25a16 16 0 0 0-26.91-2.73l5.56 9.4a6.92 6.92 0 0 1 7.1-6.67Z" transform="translate(-60.25 -34.33)"/><path class="ae7c62e7-a843-49c6-967c-75f1cb1343b5" d="M258.88 89.62h-11a7.9 7.9 0 0 1 3.23 6.14 8.92 8.92 0 0 1-.86 3.59L243 111.84h1.06A16.11 16.11 0 0 0 260 95.7a17.91 17.91 0 0 0-1.12-6.08Z" transform="translate(-60.25 -34.33)"/><path class="ae7c62e7-a843-49c6-967c-75f1cb1343b5" d="M244 102.88a7.1 7.1 0 0 1-6.67-4.68l-6.62-11.32a16 16 0 0 0 11 24.74l5.52-9.51a7.11 7.11 0 0 1-3.23.77Z" transform="translate(-60.25 -34.33)"/></g><g id="a962a7a6-b70a-4635-b897-5ecf74cc8c1c" data-name="layer1"><path class="ae7c62e7-a843-49c6-967c-75f1cb1343b5" d="M349.52 147.48a.87.87 0 0 0 .52.17.89.89 0 0 0 .88-.85l.3-5.24c-.36 0-.71.11-1.07.19a10.27 10.27 0 0 0-4.95 2.7l4.29 3ZM349 155.15a.88.88 0 0 0-.85-.68h-.18l-5.16.88a10.41 10.41 0 0 0 4.15 5.19l2-4.82a.93.93 0 0 0 .04-.57ZM347.23 151.44a.88.88 0 0 0 .46-.3.9.9 0 0 0-.11-1.22l-3.92-3.5a10.27 10.27 0 0 0-1.46 6.51l5-1.45Z" transform="translate(-60.25 -34.33)"/><path class="ae7c62e7-a843-49c6-967c-75f1cb1343b5" d="m290.79 118.65 1.45.69 1.44-.69.36-1.56-1-1.25h-1.61l-1 1.25.36 1.56z"/><path class="ae7c62e7-a843-49c6-967c-75f1cb1343b5" d="M354 146.79a.89.89 0 0 0 .19.51.88.88 0 0 0 1.21.16l4.27-3a10.39 10.39 0 0 0-6-2.89l.3 5.24ZM357 154.46a.69.69 0 0 0-.2 0 .81.81 0 0 0-.34.08.9.9 0 0 0-.43 1.15l2 4.87a10.28 10.28 0 0 0 4.17-5.23l-5.2-.88ZM353.26 157.05a.9.9 0 0 0-.39-.38 1 1 0 0 0-.41-.09.87.87 0 0 0-.75.47l-2.54 4.58a10.33 10.33 0 0 0 5.64.29c.35-.08.68-.17 1-.28l-2.54-4.59Z" transform="translate(-60.25 -34.33)"/><path class="ae7c62e7-a843-49c6-967c-75f1cb1343b5" d="m376.41 156.05-4.12-17.91a3.21 3.21 0 0 0-1.73-2.15l-16.69-8a3.29 3.29 0 0 0-1.55-.31 3.23 3.23 0 0 0-1.22.31l-16.69 8a3.13 3.13 0 0 0-1.72 2.14l-4.12 17.91a3.15 3.15 0 0 0 .43 2.43l.18.25 11.55 14.36a3.23 3.23 0 0 0 2.5 1.19h18.52a3.23 3.23 0 0 0 2.5-1.19l11.54-14.36a3.13 3.13 0 0 0 .62-2.67Zm-6.35-.22a1.06 1.06 0 0 1-1.29.73l-.26-.05c-.34-.1-.59-.23-.9-.35a9.13 9.13 0 0 0-1.74-.51.8.8 0 0 0-.56.21l-.42-.08a13 13 0 0 1-5.79 7.22c0 .12.13.36.16.41a.81.81 0 0 0-.07.59 9.58 9.58 0 0 0 .88 1.58 9.31 9.31 0 0 1 .54.8c0 .07.09.19.13.27a1.05 1.05 0 0 1-.43 1.42 1.06 1.06 0 0 1-1.38-.57c0-.08-.09-.18-.12-.26a8.67 8.67 0 0 1-.29-.91 8.7 8.7 0 0 0-.69-1.68.76.76 0 0 0-.51-.31l-.21-.38a13.53 13.53 0 0 1-1.71.51 12.91 12.91 0 0 1-7.51-.54l-.22.41a.83.83 0 0 0-.43.21 7 7 0 0 0-.78 1.8 8.57 8.57 0 0 1-.28.91c0 .07-.09.18-.13.26a1 1 0 1 1-1.8-.86 2.06 2.06 0 0 1 .12-.26 8.56 8.56 0 0 1 .54-.8 9.39 9.39 0 0 0 .9-1.63 1 1 0 0 0-.08-.56l.18-.44a13 13 0 0 1-5.76-7.19l-.44.07a1.13 1.13 0 0 0-.57-.2 9.92 9.92 0 0 0-1.74.51 8 8 0 0 1-.9.35l-.26.06a1 1 0 1 1-.45-1.94l.26-.06a8.1 8.1 0 0 1 1-.08 9.17 9.17 0 0 0 1.79-.29 1.39 1.39 0 0 0 .43-.44l.42-.12a12.89 12.89 0 0 1 2-9l-.32-.28a1.12 1.12 0 0 0-.2-.58 9.59 9.59 0 0 0-1.49-1c-.28-.17-.54-.28-.83-.49l-.2-.16a1 1 0 0 1-.24-1.47 1 1 0 0 1 .79-.35 1.26 1.26 0 0 1 .7.26l.22.18a8.58 8.58 0 0 1 .66.7 9.43 9.43 0 0 0 1.34 1.21.77.77 0 0 0 .6.06l.36.26a12.91 12.91 0 0 1 8.33-4v-.42a1.09 1.09 0 0 0 .33-.52 10 10 0 0 0-.11-1.81 7 7 0 0 1-.14-1v-.28a1.06 1.06 0 0 1 1-1.11 1.06 1.06 0 0 1 1 1.11v.28a7 7 0 0 1-.14 1 10 10 0 0 0-.11 1.81.78.78 0 0 0 .33.5v.45a13.08 13.08 0 0 1 8.29 4l.38-.27a1.12 1.12 0 0 0 .61-.06 9.56 9.56 0 0 0 1.34-1.22 8.58 8.58 0 0 1 .66-.7l.23-.18a1 1 0 0 1 1.48.09 1.06 1.06 0 0 1-.24 1.48l-.22.17c-.29.21-.55.32-.83.49a9.59 9.59 0 0 0-1.49 1 .79.79 0 0 0-.18.57l-.36.31a12.94 12.94 0 0 1 1.87 4.33 12.69 12.69 0 0 1 .21 4.66l.41.12a1.1 1.1 0 0 0 .43.43 8.43 8.43 0 0 0 1.79.3 8.1 8.1 0 0 1 1 .08l.29.06a1.07 1.07 0 0 1 .82 1.18Z" transform="translate(-60.25 -34.33)"/><path class="ae7c62e7-a843-49c6-967c-75f1cb1343b5" d="m361.29 146.4-3.9 3.49a.84.84 0 0 0-.28.47.88.88 0 0 0 .63 1l5.05 1.46a10.31 10.31 0 0 0-.21-3.35 10.66 10.66 0 0 0-1.29-3.07Z" transform="translate(-60.25 -34.33)"/></g><path id="e3203bb6-eb3c-449f-99b3-ea4b2c5157ef" data-name="plain" class="bbb2950a-b23a-44ac-82a2-991249fe6dff" d="M140.53 388.12a22.67 22.67 0 0 0-1.23-5.63 27.65 27.65 0 0 0-6.38-10.79 11.91 11.91 0 0 1-2.1-2.49c-.33-.61-.64-1.24-1-1.86l-.2-.52c0 .12-.06.16-.06.2a3.19 3.19 0 0 1-1.32 2.35c-.8.73-1.55 1.51-2.33 2.27-.79 1.05-1.59 2.09-2.38 3.13-.64 1.19-1.29 2.37-1.93 3.55l-1.29 3.48a.09.09 0 0 0 0 .05 32.07 32.07 0 0 0-1.23 7.14 19.46 19.46 0 0 0 .06 2.75 18.66 18.66 0 0 0 .64 3.85 24.62 24.62 0 0 0 7.22 11.64c.64.6 1.29 1.14 2 1.72.11-.39.2-.78.31-1.17.1-.39.2-.78.27-1.17-.07.39-.15.78-.22 1.17s-.22.78-.34 1.17l.3 1c.09.52.19 1 .28 1.56s.09 1.09.13 1.64v1c0 .08.12.16.18.24l.56.2.58.22c0-.54-.07-1-.1-1.45s0-1 0-1.44c.07-.72.14-1.45.2-2.18l.15-.47c.14-.25.28-.49.41-.74a18.4 18.4 0 0 0 1.53-1.24 33 33 0 0 0 2.44-2.58 19.48 19.48 0 0 0 2.5-3.84 28.45 28.45 0 0 0 1.23-2.83c.31-.85.51-1.74.75-2.61 0-.07.05-.13.07-.19a24.79 24.79 0 0 0 .3-7.13ZM131 408.05c-.11-.23-.21-.47-.32-.71.11.24.21.48.32.71l.48.41Z" transform="translate(-60.25 -34.33)"/><path class="ae7c62e7-a843-49c6-967c-75f1cb1343b5" d="M162.23 324.44a16 16 0 1 0 7.7 30l-11.6-16.2v9.15h-1.7v-12.5h1.7L171 353.84a16 16 0 0 0-8.72-29.4Zm5.52 21.15-1.87-2.83v-7.87h1.87Z" transform="translate(-60.25 -34.33)"/><g id="ab6a8740-8f8d-4ddf-8e21-0ce4a6e496bf" data-name="plain"><path class="ae7c62e7-a843-49c6-967c-75f1cb1343b5" d="m161.4 258.94-13.2-7.66a2.88 2.88 0 0 0-2.76 0l-13.3 7.66a2.85 2.85 0 0 0-1.45 2.42v15.29a2.88 2.88 0 0 0 1.46 2.42l3.51 2a5.27 5.27 0 0 0 2.91.83c2.49 0 3.79-1.51 3.79-4.14v-15.1c0-.21.13-.53-.08-.53h-1.68c-.21 0-.63.32-.63.53v15.1c0 1.17-1.09 2.33-3.06 1.34l-3.62-2.1a.37.37 0 0 1-.2-.35v-15.29a.49.49 0 0 1 .26-.37l13.27-7.64a.47.47 0 0 1 .43 0L160.2 261c.12.08.1.22.1.37v15.29c0 .15 0 .29-.1.36l-13.2 7.64a.39.39 0 0 1-.39 0l-3.38-2a.35.35 0 0 0-.33 0 8.27 8.27 0 0 1-2 .91c-.22.08-.54.21.12.58l4.42 2.62a2.86 2.86 0 0 0 1.39.37 2.82 2.82 0 0 0 1.4-.37l13.15-7.65a2.72 2.72 0 0 0 1.29-2.42v-15.34a2.71 2.71 0 0 0-1.27-2.42Z" transform="translate(-60.25 -34.33)"/><path class="ae7c62e7-a843-49c6-967c-75f1cb1343b5" d="M151 274.23c-3.51 0-4.28-1-4.54-2.71 0-.19-.19-.42-.38-.42h-1.71c-.21 0-.39.26-.39.47 0 2.23 1.22 4.94 7 4.94 4.2 0 6.6-1.63 6.6-4.52s-1.93-3.61-6-4.15-4.58-.84-4.58-1.78c0-.8.36-1.86 3.41-1.86 2.72 0 3.72.58 4.14 2.42a.38.38 0 0 0 .37.3h1.72a.44.44 0 0 0 .28-.12.38.38 0 0 0 .1-.29c-.27-3.17-2.37-4.64-6.61-4.64-3.78 0-6 1.6-6 4.27 0 2.9 2.24 3.7 5.86 4.06 4.34.43 4.68 1.06 4.68 1.91-.02 1.49-1.21 2.12-3.95 2.12Z" transform="translate(-60.25 -34.33)"/></g><path id="ea04a428-db55-406c-969b-3903266d62d9" data-name="original-wordmark" class="ae7c62e7-a843-49c6-967c-75f1cb1343b5" d="M65.73 220.41h48v16.92h-24v2.82H79.06v-2.82H65.73Zm2.66 14.1h5.34v-8.46h2.66v8.46h2.67v-11.28H68.39Zm13.34-11.28v14.1h5.33v-2.82h5.33v-11.28Zm5.33 2.82h2.67v5.64h-2.67Zm8-2.82v11.28h5.33v-8.46h2.67v8.46h2.67v-8.46h2.66v8.46h2.67v-11.28Z" transform="translate(-60.25 -34.33)"/><g id="b3e56411-fd62-43cb-8adf-aa4099524fa0" data-name="original"><circle class="ae7c62e7-a843-49c6-967c-75f1cb1343b5" cx="233.41" cy="262.32" r="4.36"/><path class="ae7c62e7-a843-49c6-967c-75f1cb1343b5" d="M310.25 289.45c-.83-.31-1.7-.6-2.63-.86.24-.93.43-1.84.57-2.71.81-5.05-.08-8.61-2.52-10a4.87 4.87 0 0 0-2.45-.62c-2.71 0-6.11 2-9.55 5.31-3.45-3.34-6.85-5.31-9.56-5.31a4.84 4.84 0 0 0-2.44.62c-2.44 1.41-3.34 5-2.52 10 .14.87.33 1.78.56 2.71-.92.26-1.8.55-2.63.86-4.78 1.83-7.41 4.38-7.41 7.2s2.63 5.36 7.41 7.19c.83.31 1.71.6 2.63.86-.23.93-.42 1.84-.56 2.72-.82 5.05.08 8.6 2.52 10a4.84 4.84 0 0 0 2.44.62c2.71 0 6.11-2 9.56-5.31 3.44 3.34 6.84 5.31 9.55 5.31a4.87 4.87 0 0 0 2.45-.62c2.44-1.41 3.33-5 2.52-10-.14-.88-.33-1.79-.57-2.72.93-.26 1.8-.55 2.63-.86 4.78-1.83 7.42-4.38 7.42-7.19s-2.67-5.37-7.42-7.2Zm-5.67-11.7c1.57.91 2.1 3.75 1.45 7.78-.13.81-.3 1.66-.52 2.52a49.83 49.83 0 0 0-6.32-1 48.52 48.52 0 0 0-4-5c2.85-2.81 5.73-4.7 8-4.7a2.69 2.69 0 0 1 1.39.4Zm-4.3 22.71c-.71 1.22-1.49 2.46-2.32 3.67q-2.1.15-4.29.15c-1.49 0-2.92 0-4.3-.16-.83-1.2-1.61-2.44-2.32-3.66s-1.41-2.54-2-3.81c.61-1.27 1.29-2.55 2-3.82s1.49-2.46 2.32-3.67c1.4-.1 2.84-.15 4.3-.15s2.92.05 4.29.16c.83 1.2 1.62 2.44 2.32 3.66s1.41 2.55 2 3.82c-.59 1.27-1.28 2.54-2 3.81Zm3.18-1.26c.56 1.34 1 2.66 1.45 3.94-1.31.29-2.7.52-4.13.7.47-.74.94-1.5 1.39-2.29s.88-1.55 1.29-2.35Zm-9.79 10.38c-.9-1-1.79-2.06-2.64-3.17h5.28c-.86 1.11-1.74 2.18-2.64 3.17Zm-7.11-5.74a41.62 41.62 0 0 1-4.13-.71c.4-1.28.89-2.59 1.45-3.93.4.79.83 1.57 1.28 2.35s.92 1.55 1.4 2.29Zm-2.68-9.75c-.57-1.34-1.05-2.66-1.46-3.94 1.31-.29 2.7-.52 4.14-.7-.48.74-.94 1.5-1.4 2.29s-.88 1.56-1.28 2.35Zm9.79-10.38c.9 1 1.78 2.06 2.64 3.18q-1.32-.06-2.64-.06t-2.64.06c.85-1.12 1.74-2.19 2.64-3.18Zm8.5 8c-.45-.79-.92-1.55-1.39-2.29 1.46.18 2.84.42 4.13.71-.41 1.28-.89 2.59-1.45 3.93-.41-.76-.84-1.54-1.29-2.32Zm-20.87-6.21c-.65-4-.12-6.87 1.46-7.78a2.65 2.65 0 0 1 1.35-.33c2.31 0 5.18 1.89 8 4.7a48.48 48.48 0 0 0-4 5 49.28 49.28 0 0 0-6.32 1c-.18-.9-.36-1.75-.49-2.56Zm-9.45 11.12c0-1.82 2.19-3.7 6-5.16.77-.29 1.59-.56 2.45-.8a50.17 50.17 0 0 0 2.31 6 49.39 49.39 0 0 0-2.31 6c-5.3-1.57-8.45-3.86-8.45-6.01Zm10.91 18.89c-1.58-.91-2.11-3.74-1.46-7.78.13-.81.31-1.66.53-2.52a49.28 49.28 0 0 0 6.32 1 48.48 48.48 0 0 0 4 5c-2.85 2.81-5.72 4.7-8 4.7a2.65 2.65 0 0 1-1.39-.37Zm23.24-7.75c.65 4 .12 6.87-1.45 7.78a2.71 2.71 0 0 1-1.36.33c-2.3 0-5.18-1.89-8-4.7a48.52 48.52 0 0 0 4-5 49.83 49.83 0 0 0 6.32-1c.22.93.39 1.83.49 2.59Zm3.45-6c-.77.29-1.59.56-2.45.8a49.5 49.5 0 0 0-2.32-6 50.29 50.29 0 0 0 2.32-6c5.28 1.51 8.45 3.81 8.45 6 .03 1.9-2.16 3.78-5.97 5.24Z" transform="translate(-60.25 -34.33)"/></g><path class="ae7c62e7-a843-49c6-967c-75f1cb1343b5" d="M241.9 325.17a23.44 23.44 0 0 1-17.1 13.07 14.6 14.6 0 0 1-3.66.43c-4.5 0-8.63-1.88-10.63-4.95-2.69-4.09-3.61-12.76 5.26-19.18.18 1 .55 2.32.79 3.12a14.42 14.42 0 0 0-4.17 4.88 9 9 0 0 0 .49 9.47 8.53 8.53 0 0 0 6.24 3.62 16.5 16.5 0 0 0 10-1.87c4.76-2.51 7.94-5.5 10-9.59a3.48 3.48 0 0 1-1-2.25 3.41 3.41 0 0 1 3.29-3.54h.13a3.43 3.43 0 0 1 .37 6.85Zm10.76-7.57c4.57 5.19 4.7 11.3 2.93 14.84-1.65 3.24-6 6.48-11.85 6.48a18.91 18.91 0 0 1-7.88-1.9 34.82 34.82 0 0 0 2.75-2.2 15.53 15.53 0 0 0 6 1.28 9 9 0 0 0 8.37-5 8.46 8.46 0 0 0 .12-7.21 16.31 16.31 0 0 0-6.47-7.82 23.27 23.27 0 0 0-13-4h-1.1a3.46 3.46 0 0 1-3 2.08h-.12a3.43 3.43 0 0 1-.11-6.85h.12a3.36 3.36 0 0 1 3 1.84h1c7.75.03 14.58 3.02 19.24 8.46Zm-31 8.62a2.76 2.76 0 0 1 .43-1.77c-3.42-5.93-5.25-13.44-2.44-21.26 2-5.87 7.08-9.84 12.58-9.84 5.87 0 12 5.13 12.71 15-.92-.3-2.25-.75-3.06-.91-.19-3.24-2.93-11.3-9.4-11.18-2.33.06-5.75 1.16-7.5 3.42a16.32 16.32 0 0 0-3.62 9.47 22.35 22.35 0 0 0 3.18 13.56 1 1 0 0 1 .42-.06h.04a3.42 3.42 0 1 1 .13 6.84H225a3.45 3.45 0 0 1-3.42-3.3Z" transform="translate(-60.25 -34.33)"/><path id="a61cdcaa-1503-4e91-887e-affd1b105155" data-name="original" class="bbb2950a-b23a-44ac-82a2-991249fe6dff" d="M173.61 219.18a2 2 0 0 0 .13.62 7.6 7.6 0 0 0 1.65 3A19.54 19.54 0 0 0 179 226c1.14.82 2.31 1.63 3.45 2.44.2.14.39.3.6.47l-.5.27a26.92 26.92 0 0 0-4.31 2.67 8.82 8.82 0 0 0-2.14 2.17 4.65 4.65 0 0 0-.54 4.5 2.72 2.72 0 0 0 .9 1.17 1.35 1.35 0 0 0 .45.22c.4.1.81.16 1.22.24h1.16a7.4 7.4 0 0 0 3.51-1.28 7.7 7.7 0 0 0 3.23-4.63 8.1 8.1 0 0 0 0-4.26 3 3 0 0 0-.13-.39l-.18-.41 2.63-1.51c0 .16-.1.32-.14.47a10.91 10.91 0 0 0-.45 3.49 6.71 6.71 0 0 0 1.17 3.5 1.71 1.71 0 0 0 2.66 0 8.16 8.16 0 0 0 .61-1c.42-.89.82-1.79 1.23-2.68l.07-.17c0 .43-.06.8-.08 1.17a4.5 4.5 0 0 0 .21 1.71 1.17 1.17 0 0 0 1 .89 1.29 1.29 0 0 0 .94-.34 4 4 0 0 0 1-1.22c.73-1.34 1.47-2.67 2.13-4s1.34-3 2-4.51c0-.08.07-.17.11-.27.16.62.26 1.22.46 1.79a19.41 19.41 0 0 0 .84 1.93.59.59 0 0 1-.07.74c-.87 1-1.71 2.09-2.56 3.14a6.05 6.05 0 0 0-.53.72 1.42 1.42 0 0 0-.19.52.67.67 0 0 0 .53.76 3.62 3.62 0 0 0 1 .07 6 6 0 0 0 3.21-1.2 3.37 3.37 0 0 0 1.32-3.64 7.91 7.91 0 0 0-.36-1.17.45.45 0 0 1 .05-.46 38.54 38.54 0 0 0 2.61-4.42 1.3 1.3 0 0 1 .11-.19 11.81 11.81 0 0 0 1.32 3.75c-.35.33-.69.64-1 1a6.69 6.69 0 0 0-1.6 2.52 3 3 0 0 0-.18 1.3 1.11 1.11 0 0 0 1.36 1 6.14 6.14 0 0 0 3.67-2.26 3 3 0 0 0 .42-2.72c-.07-.27-.15-.53-.24-.83.36-.11.71-.25 1.08-.33a9.62 9.62 0 0 1 5.62.33 4.22 4.22 0 0 1 2.45 2.13 2.45 2.45 0 0 1-.94 3.33 2.75 2.75 0 0 0-.33.23.31.31 0 0 0-.08.26c0 .05.13.11.2.11a2 2 0 0 0 1-.43 3.19 3.19 0 0 0 1.47-2.23s0 0 0-.07v-.72a4.88 4.88 0 0 0-2-3.32 7.28 7.28 0 0 0-4.3-1.45 9.93 9.93 0 0 0-3.74.57l-1 .41c0-.08-.1-.16-.14-.24a7.28 7.28 0 0 1-.88-2.25 5 5 0 0 1 0-1.77c.14-.56.31-1.11.48-1.66a.42.42 0 0 0-.25-.58 1.51 1.51 0 0 0-.3-.1 4.73 4.73 0 0 0-2 .15.57.57 0 0 0-.44.45c0 .15-.09.29-.13.43a10.24 10.24 0 0 1-.57 1.78c-.68 1.42-1.46 2.8-2.27 4.16-.08.15-.17.29-.28.47a6 6 0 0 1-.68-1.73 5.5 5.5 0 0 1 0-2.1c.13-.52.3-1 .46-1.54a.36.36 0 0 0-.18-.5 1.22 1.22 0 0 0-.36-.14 4.45 4.45 0 0 0-2.05.17.55.55 0 0 0-.38.41 16.51 16.51 0 0 1-.61 1.88c-1.06 2.44-2.15 4.85-3.24 7.27-.23.51-.49 1-.75 1.49-.07.12-.16.23-.24.35a.27.27 0 0 1-.09-.18 4.8 4.8 0 0 1 0-.93c.18-.91.39-1.82.61-2.72.18-.74.39-1.48.58-2.22a.69.69 0 0 0-.11-.69 1 1 0 0 0-1.29-.15l-.16.09v-.26a4.18 4.18 0 0 0-.06-1.69 1.34 1.34 0 0 0-1.41-1.07 3.06 3.06 0 0 0-1 .19 7.56 7.56 0 0 0-3.17 2.51 1 1 0 0 1-.29.25l-3.32 1.83-1.24.67c-.33-.31-.63-.64-1-.92-1-.85-2.1-1.68-3.15-2.52a12.23 12.23 0 0 1-2.52-2.51 4.39 4.39 0 0 1-.88-2.44 5.75 5.75 0 0 1 .88-3.2 12.09 12.09 0 0 1 2.91-3.18 26.4 26.4 0 0 1 3.82-2.54 29 29 0 0 1 5.87-2.59 16.22 16.22 0 0 1 6.49-.74 6.57 6.57 0 0 1 2.49.73 2.51 2.51 0 0 1 1.31 1.42 3.55 3.55 0 0 1 .07 2 7.68 7.68 0 0 1-2 3.46 13.4 13.4 0 0 1-5.49 3.47 14.87 14.87 0 0 1-3.73.8 7 7 0 0 1-3.05-.37 4 4 0 0 1-1.69-1.14c-.08-.1-.18-.2-.33-.11a.29.29 0 0 0-.13.37 3.65 3.65 0 0 0 .29.71 4.22 4.22 0 0 0 1.33 1.26 6.54 6.54 0 0 0 3.31.91 16.76 16.76 0 0 0 5.22-.67 12.79 12.79 0 0 0 6.27-3.78 9.62 9.62 0 0 0 2.64-5.51 5.32 5.32 0 0 0-.49-3 5.53 5.53 0 0 0-2.4-2.34 10.16 10.16 0 0 0-4.71-1.22h-1.65a17.08 17.08 0 0 0-5.79 1.25 36.36 36.36 0 0 0-4.15 1.8 26.49 26.49 0 0 0-7.92 5.67 11.91 11.91 0 0 0-2.62 4.12 14.59 14.59 0 0 0-.42 1.43m10.64 13.77a6.09 6.09 0 0 1-2.16 4.21 4.86 4.86 0 0 1-2.48 1.23 1.73 1.73 0 0 1-1-.07 1 1 0 0 1-.59-1.07 4 4 0 0 1 .58-2 7.19 7.19 0 0 1 1.82-2 28.08 28.08 0 0 1 3.54-2.38s0 0 .09 0a6.28 6.28 0 0 1 .42 2.03Zm9.62-7.41a12.65 12.65 0 0 1-.36 1.62 47.64 47.64 0 0 1-2 5.34 8.56 8.56 0 0 1-.53.93.57.57 0 0 1-.1.13c-.22.21-.43.2-.55-.08a5.49 5.49 0 0 1-.27-1 4.48 4.48 0 0 1 .12-.83 9.1 9.1 0 0 1 1.42-4.73 4.47 4.47 0 0 1 1.38-1.55 2.37 2.37 0 0 1 .61-.27c.35-.08.59.07.5.39Zm6.56 8.37 2.36-2.76c.32.97-1.42 3.02-2.14 2.71Zm7.54-1.86c-.17.1-.35.17-.52.25s-.21 0-.22-.13a.9.9 0 0 1 0-.28 5.9 5.9 0 0 1 1.78-2.86h.06a2.54 2.54 0 0 1-.89 2.97Z" transform="translate(-60.25 -34.33)"/><path class="ae7c62e7-a843-49c6-967c-75f1cb1343b5" d="M222.06 54.55a3.36 3.36 0 1 1-3.36-3.36h3.36Zm1.69 0a3.37 3.37 0 0 1 6.73 0V63a3.37 3.37 0 0 1-6.73 0v-8.45Zm3.37-13.5a3.36 3.36 0 1 1 3.36-3.36v3.36Zm0 1.7a3.36 3.36 0 0 1 0 6.72h-8.42a3.36 3.36 0 1 1 0-6.72Zm13.49 3.36a3.37 3.37 0 1 1 3.39 3.36h-3.36Zm-1.69 0a3.36 3.36 0 1 1-6.72 0v-8.42a3.36 3.36 0 1 1 6.72 0Zm-3.36 13.5A3.36 3.36 0 1 1 232.2 63v-3.39Zm0-1.7a3.36 3.36 0 0 1 0-6.72H244a3.36 3.36 0 1 1 0 6.72Z" transform="translate(-60.25 -34.33)"/><g id="b8f8aa3b-9dd7-4639-b53e-b10d90aab0cf" data-name="original"><path class="ae7c62e7-a843-49c6-967c-75f1cb1343b5" d="M99.82 179.25a5.83 5.83 0 0 0-2.93 1.1 4.48 4.48 0 0 1-2.32.9v-.05a7.94 7.94 0 0 0-.18-3.57 7.6 7.6 0 0 0-1.81-2.63 9.64 9.64 0 0 0 1.77-3.71 7.72 7.72 0 0 0-.35-4.2c-.1-.19-1 .32-1 .32a12.07 12.07 0 0 0-1-2c-.74-.48-1.54 2-1.54 2a3.63 3.63 0 0 0-3 1.16 2.43 2.43 0 0 1-1 .59c-.1 0-.23 0-.56.89-.49 1.33.84 2.8.84 2.8a7.12 7.12 0 0 0-2.17 2.5 6.39 6.39 0 0 0-.45 3 3.67 3.67 0 0 0-1.2 2 3.3 3.3 0 0 0 .46 2 .5.5 0 0 0 .68.24s-.75.87-.05 1.24a2.09 2.09 0 0 0 2.28-.05c.41-.41.49-1.34.65-1.71 0-.09.16.15.27.26a2 2 0 0 0 .36.26 1.09 1.09 0 0 0-.6 1.42c.14.33.63.54 1.42.54a43.76 43.76 0 0 0 4.42-.4 1.11 1.11 0 0 0 .67-.38 16.08 16.08 0 0 0 4-1.81 7.15 7.15 0 0 1 2.71-1.24.74.74 0 0 0-.37-1.47Z" transform="translate(-60.25 -34.33)"/><path class="ae7c62e7-a843-49c6-967c-75f1cb1343b5" d="M90.73 158.94a16 16 0 1 0 16 16 16 16 0 0 0-16-16Zm9.62 22.66a6.35 6.35 0 0 0-2.42 1.13 17.6 17.6 0 0 1-4 1.85 2.28 2.28 0 0 1-.93.42 40.52 40.52 0 0 1-4.62.42h-.06a2.51 2.51 0 0 1-1.94-.66 3.18 3.18 0 0 1-2.82-.18 1.41 1.41 0 0 1-.77-1 1.58 1.58 0 0 1 0-.53 1.79 1.79 0 0 1-.2-.26 4.21 4.21 0 0 1-.61-2.6 4.14 4.14 0 0 1 1.14-2.19 7.3 7.3 0 0 1 .54-3 6.94 6.94 0 0 1 1.76-2.31 3.49 3.49 0 0 1-.44-2.95c.31-.8.55-1.25 1.1-1.44a1.79 1.79 0 0 0 .65-.34 4.54 4.54 0 0 1 3.06-1.48c0-.12.11-.24.17-.37a2.71 2.71 0 0 1 1.37-1.56 1.26 1.26 0 0 1 1.13.13c.17.11.38.25 1 1.54a1.2 1.2 0 0 1 .73 0 1 1 0 0 1 .62.51 8.57 8.57 0 0 1 .45 4.8 8.77 8.77 0 0 1-1.51 3.44A6.72 6.72 0 0 1 95.6 180a8.76 8.76 0 0 0 .81-.44 6.71 6.71 0 0 1 3.4-1.24 1.7 1.7 0 0 1 1.8 1.47 1.63 1.63 0 0 1-1.26 1.81Z" transform="translate(-60.25 -34.33)"/></g><g id="ba7e0398-d08f-4be4-80ae-e03379233692" data-name="plain"><path class="ae7c62e7-a843-49c6-967c-75f1cb1343b5" d="M213.38 280.13 199 288.26v-6.33l9-4.93 5.42 3.13Zm1-.9v-17l-5.26 3v10.97l5.26 3Zm-31 .9 14.39 8.13v-6.33l-9-4.93Zm-1-.9v-17l5.26 3v10.97Zm.62-18.11 14.75-8.35v6.13l-9.46 5.2h-.07Zm30.76 0L199 252.77v6.13l9.45 5.19h.08l5.22-3ZM197.74 280.48l-8.85-4.86V266l8.85 5.1Zm1.26 0 8.84-4.86V266l-8.84 5.1Zm-9.51-15.6 8.88-4.88 8.87 4.88-8.87 5.12-8.88-5.12Z" transform="translate(-60.25 -34.33)"/></g></svg>
